<svg width="1440" height="398" viewBox="0 0 1440 398" fill="none" xmlns="http://www.w3.org/2000/svg">
<path d="M1310.61 288.065C1298.15 243.023 1340.51 202.069 1385.11 216.039L1481.92 246.367C1524.64 259.75 1537.48 313.971 1505.29 345.087L1435.52 412.542C1403.33 443.659 1349.58 428.997 1337.65 385.849L1310.61 288.065Z" fill="#8A8C88" fill-opacity="0.51"/>
<path d="M1200.61 92.0655C1188.15 47.0233 1230.51 6.06861 1275.11 20.0387L1371.92 50.3667C1414.64 63.7495 1427.48 117.971 1395.29 149.087L1325.52 216.542C1293.33 247.659 1239.58 232.997 1227.65 189.849L1200.61 92.0655Z" fill="#53599A" fill-opacity="0.51"/>
<path d="M1176.5 295.552C1198.59 254.37 1257.52 253.994 1280.13 294.891L1329.22 383.675C1350.89 422.852 1322.73 470.938 1277.97 471.223L1180.92 471.843C1136.15 472.129 1107.39 424.407 1128.55 384.956L1176.5 295.552Z" fill="#A6ECE0" fill-opacity="0.51"/>
<path d="M-1.85881 251.43C12.6165 206.996 70.547 196.227 100.023 232.491L159.202 305.299C187.439 340.038 168.215 392.337 124.201 400.519L35.96 416.922C-8.05419 425.103 -44.7877 383.206 -30.9209 340.64L-1.85881 251.43Z" fill="#B0C4B1" fill-opacity="0.51"/>
</svg>
